# xmcd
#
# Track frame offsets:
#	150
#	38787
#	70273
#	90922
#	125152
#	150593
#	176062
#
# Disc length: 2731 seconds
#
# Revision: 1
# Processed by: cddbd v1.5.2PL0 Copyright (c) Steve Scherf et al.
# Submitted via: audiograbber 1.83.01
#
DISCID=550aa907
DTITLE=Grateful Dead - 71-01-24 Seattle Centre Arena, Seattle WA
DYEAR=1900
DGENRE=
TTITLE0=Truckin'
TTITLE1=China Cat Sunflower
TTITLE2=I Know You Rider
TTITLE3=It Hurts Me Too
TTITLE4=Cumberland Blues
TTITLE5=Casey Jones
TTITLE6=Sugar Magnolia
EXTD=
EXTT0=
EXTT1=
EXTT2=
EXTT3=
EXTT4=
EXTT5=
EXTT6=
PLAYORDER=
